<?xml version="1.0" encoding="UTF-8" standalone="no"?>
<!DOCTYPE svg PUBLIC "-//W3C//DTD SVG 1.1//EN" "http://www.w3.org/Graphics/SVG/1.1/DTD/svg11.dtd">
<svg width="100%" height="100%" viewBox="0 0 24 24" version="1.1" xmlns="http://www.w3.org/2000/svg" xmlns:xlink="http://www.w3.org/1999/xlink" xml:space="preserve" xmlns:serif="http://www.serif.com/" style="fill-rule:evenodd;clip-rule:evenodd;stroke-linejoin:round;stroke-miterlimit:2;">
    <path d="M16.18,19.6L14.17,16.12C15.15,15.4 15.83,14.28 15.97,13L20,13C19.83,15.76 18.35,18.16 16.18,19.6" style="fill-rule:nonzero;"/>
    <path d="M13,3L13,7C15.196,7.423 16.606,8.815 17,11L21,11C20.706,6.711 17.246,3.215 13,3ZM14,4.13C16.908,4.715 19.226,7.062 19.853,10C19.853,10 17.787,10 17.787,10C17.211,8.107 15.906,6.811 14,6.22L14,4.13Z"/>
    <path d="M7,12.5C7,13.14 7.13,13.75 7.38,14.3L3.9,16.31C3.32,15.16 3,13.87 3,12.5C3,7.97 6.54,4.27 11,4L11,8.03C8.75,8.28 7,10.18 7,12.5" style="fill-rule:nonzero;"/>
    <path d="M11.5,21C8.53,21 5.92,19.5 4.4,17.18L7.88,15.17C8.7,16.28 10,17 11.5,17C12.14,17 12.75,16.87 13.3,16.62L15.31,20.1C14.16,20.68 12.87,21 11.5,21Z" style="fill-rule:nonzero;"/>
</svg>
