<?xml version="1.0" encoding="UTF-8" standalone="no"?>
<!DOCTYPE svg PUBLIC "-//W3C//DTD SVG 1.1//EN" "http://www.w3.org/Graphics/SVG/1.1/DTD/svg11.dtd">
<svg width="100%" height="100%" viewBox="0 0 24 24" version="1.1" xmlns="http://www.w3.org/2000/svg" xmlns:xlink="http://www.w3.org/1999/xlink" xml:space="preserve" xmlns:serif="http://www.serif.com/" style="fill-rule:evenodd;clip-rule:evenodd;stroke-linejoin:round;stroke-miterlimit:2;">
    <path d="M13,7.03L13,3C17.3,3.26 20.74,6.7 21,11L16.97,11C16.74,8.91 15.09,7.26 13,7.03Z"/>
    <path d="M14.17,16.134C15.192,15.317 15.841,14.299 15.967,13L20,13C19.731,15.949 18.391,18.095 16.197,19.6L14.17,16.134ZM15.442,16.33C16.094,15.66 16.557,14.889 16.799,14C16.799,14 18.842,14 18.842,14C18.486,15.693 17.679,17.047 16.484,18.11L15.442,16.33Z"/>
    <path d="M4.4,17.201L7.887,15.17C9.301,16.872 11.086,17.424 13.309,16.61L15.31,20.096C11.024,22.025 7.173,20.928 4.4,17.201ZM5.92,17.473L7.699,16.437C9.117,17.808 10.817,18.306 12.84,17.801C12.839,17.801 13.865,19.587 13.865,19.587C10.822,20.586 8.07,19.815 5.919,17.473L5.92,17.473Z"/>
    <path d="M3.909,16.31L7.385,14.289C6.467,10.935 7.688,8.857 11,8.024L11,4C4.767,4.62 1.234,10.494 3.909,16.31ZM4.415,14.859C2.992,10.42 5.524,6.178 10,5.172C10,5.172 10,7.275 10,7.275C8.44,7.801 7.366,8.632 6.741,9.71C6.116,10.788 5.923,12.148 6.243,13.797L4.415,14.859Z"/>
</svg>
