<?xml version="1.0" encoding="UTF-8" standalone="no"?>
<!DOCTYPE svg PUBLIC "-//W3C//DTD SVG 1.1//EN" "http://www.w3.org/Graphics/SVG/1.1/DTD/svg11.dtd">
<svg width="100%" height="100%" viewBox="0 0 24 24" version="1.1" xmlns="http://www.w3.org/2000/svg" xmlns:xlink="http://www.w3.org/1999/xlink" xml:space="preserve" xmlns:serif="http://www.serif.com/" style="fill-rule:evenodd;clip-rule:evenodd;stroke-linejoin:round;stroke-miterlimit:2;">
    <path d="M16.18,19.6L14.17,16.12C15.15,15.4 15.83,14.28 15.97,13L20,13C19.83,15.76 18.35,18.16 16.18,19.6Z"/>
    <path d="M13,3L13,7C15.196,7.423 16.606,8.815 17,11L21,11C20.706,6.711 17.246,3.215 13,3ZM14,4.13C16.908,4.715 19.226,7.062 19.853,10C19.853,10 17.787,10 17.787,10C17.211,8.107 15.906,6.811 14,6.22L14,4.13Z"/>
    <path d="M4.4,17.201L7.887,15.17C9.301,16.872 11.086,17.424 13.309,16.61L15.31,20.096C11.024,22.025 7.173,20.928 4.4,17.201ZM5.92,17.473L7.699,16.437C9.117,17.808 10.817,18.306 12.84,17.801C12.839,17.801 13.865,19.587 13.865,19.587C10.822,20.586 8.07,19.815 5.919,17.473L5.92,17.473Z"/>
    <path d="M3.909,16.31L7.385,14.289C6.467,10.935 7.688,8.857 11,8.024L11,4C4.767,4.62 1.234,10.494 3.909,16.31ZM4.415,14.859C2.992,10.42 5.524,6.178 10,5.172C10,5.172 10,7.275 10,7.275C8.44,7.801 7.366,8.632 6.741,9.71C6.116,10.788 5.923,12.148 6.243,13.797L4.415,14.859Z"/>
</svg>
