<?xml version="1.0" encoding="UTF-8" standalone="no"?>
<!DOCTYPE svg PUBLIC "-//W3C//DTD SVG 1.1//EN" "http://www.w3.org/Graphics/SVG/1.1/DTD/svg11.dtd">
<svg width="100%" height="100%" viewBox="0 0 615 117" version="1.1" xmlns="http://www.w3.org/2000/svg" xmlns:xlink="http://www.w3.org/1999/xlink" xml:space="preserve" xmlns:serif="http://www.serif.com/" style="fill-rule:evenodd;clip-rule:evenodd;">
    <g transform="matrix(1,0,0,1,-14.393,-3.737)">
        <g>
            <path d="M123.583,3.836L123.583,3.748L120.113,3.748C119.983,3.748 119.866,3.737 119.738,3.737L119.738,3.748L50.137,3.748C26.298,3.748 14.393,13.362 14.393,32.585L14.393,85.526C14.393,104.627 26.301,114.184 50.137,114.184L119.829,114.184L119.829,114.15C143.58,114.121 155.467,104.58 155.467,85.524L155.467,32.583C155.465,14.407 144.833,4.833 123.583,3.836ZM115.955,87.315L58.152,87.315L58.152,30.012L115.955,30.012L115.955,87.315Z" style="fill:rgb(39,56,125);fill-rule:nonzero;"/>
        </g>
        <g>
            <path d="M473.349,113.796L431.876,113.796L431.876,84.861L373.812,84.861L373.812,113.796L332.359,113.796L332.359,28.787C332.359,21.536 335.077,15.774 340.564,11.465C345.912,7.28 353.552,5.196 363.487,5.196L442.406,5.196C452.341,5.196 459.976,7.28 465.324,11.465C470.681,15.645 473.349,21.439 473.349,28.787L473.349,113.796ZM431.874,64.857L431.874,33.43L373.81,33.43L373.81,64.857L431.874,64.857Z" style="fill:rgb(39,56,125);fill-rule:nonzero;"/>
            <path d="M622.048,10.638C617.863,7.313 611.415,5.534 602.777,5.252L602.923,5.214L601.301,5.214C600.954,5.207 600.638,5.195 600.267,5.195L526.458,5.195L526.427,5.214L524.015,5.214C514.08,5.214 506.446,7.284 501.094,11.479C495.743,15.644 493.032,21.27 492.892,28.279L492.879,28.279L492.879,28.538C492.879,28.648 492.87,28.718 492.87,28.811L492.879,28.811L492.879,113.796L534.357,113.796L534.357,85.426L601.406,85.426C619.615,85.426 628.722,78.135 628.722,63.476L628.722,28.646C628.727,20.281 626.499,14.293 622.048,10.638ZM586.53,61.577L533.781,61.577L533.781,33.432L586.53,33.432L586.53,61.577Z" style="fill:rgb(39,56,125);fill-rule:nonzero;"/>
            <path d="M280.24,5.195L274.047,5.195L274.047,68.367C273.774,69.03 273.181,69.526 271.914,69.302C271.914,69.302 271.1,69.132 270.525,68.525C263.526,57.701 236.575,20.656 227.948,8.852C227.927,8.804 227.879,8.773 227.843,8.727L227.868,8.727C227.736,8.595 227.588,8.469 227.44,8.356C227.375,8.255 227.317,8.176 227.232,8.147C225.04,6.173 222.161,5.197 218.334,5.197L184.837,5.197C180.62,5.197 177.385,6.396 175.117,8.746C172.836,11.127 171.702,14.335 171.652,18.295L171.59,18.325L171.59,113.797L210.768,113.797C210.768,113.797 210.549,63.363 210.445,48.501C210.611,47.515 211.326,46.084 214.316,46.446C214.316,46.446 215.466,46.532 215.956,47.401C223.516,59.471 273.053,113.797 273.053,113.797L313.745,113.797L313.745,5.197L280.24,5.197L280.24,5.195Z" style="fill:rgb(39,56,125);fill-rule:nonzero;"/>
        </g>
        <g>
            <path d="M81.054,72.543C81.054,72.543 124.952,97.759 134.096,117.758L168.256,117.758C165.424,111.043 149.143,81.172 81.054,72.543Z" style="fill:rgb(236,39,39);fill-rule:nonzero;stroke:white;stroke-width:1.43px;"/>
        </g>
    </g>
</svg>
