<?xml version="1.0" encoding="UTF-8" standalone="no"?>
<!DOCTYPE svg PUBLIC "-//W3C//DTD SVG 1.1//EN" "http://www.w3.org/Graphics/SVG/1.1/DTD/svg11.dtd">
<svg width="100%" height="100%" viewBox="0 0 24 24" version="1.1" xmlns="http://www.w3.org/2000/svg" xmlns:xlink="http://www.w3.org/1999/xlink" xml:space="preserve" xmlns:serif="http://www.serif.com/" style="fill-rule:evenodd;clip-rule:evenodd;stroke-linejoin:round;stroke-miterlimit:2;">
    <g transform="matrix(0.6,0,0,0.6,-1.44055,-0.2)">
        <path d="M6,2L18,2C19.097,2 20,2.903 20,4L20,20C20,21.097 19.097,22 18,22L6,22C4.903,22 4,21.097 4,20L4,4C4,2.903 4.903,2 6,2M12,4C8.708,4 6,6.708 6,10C6,13.31 8.69,16 12.1,16L11.22,13.77C10.95,13.29 11.11,12.68 11.59,12.4L12.45,11.9C12.93,11.63 13.54,11.79 13.82,12.27L15.74,14.69C17.12,13.59 18,11.9 18,10C18,6.708 15.292,4 12,4M12,9C12.549,9 13,9.451 13,10C13,10.549 12.549,11 12,11C11.451,11 11,10.549 11,10C11,9.451 11.451,9 12,9M7,18C6.451,18 6,18.451 6,19C6,19.549 6.451,20 7,20C7.549,20 8,19.549 8,19C8,18.451 7.549,18 7,18M12.09,13.27L14.58,19.58L17.17,18.08L12.95,12.77L12.09,13.27Z" style="fill-rule:nonzero;"/>
    </g>
    <g id="numeric-1-box-outline.svg" transform="matrix(0.666667,0,0,0.666667,17.2405,17)">
        <clipPath id="_clip1">
            <rect x="-9" y="-9" width="18" height="18"/>
        </clipPath>
        <g clip-path="url(#_clip1)">
            <g transform="matrix(1,0,0,1,-12,-12)">
                <path d="M19,19L5,19L5,5L19,5M19,3L5,3C3.903,3 3,3.903 3,5L3,19C3,20.097 3.903,21 5,21L19,21C20.097,21 21,20.097 21,19L21,5C21,3.903 20.097,3 19,3M12,17L14,17L14,7L10,7L10,9L12,9" style="fill-rule:nonzero;"/>
            </g>
        </g>
    </g>
</svg>
