<?xml version="1.0" encoding="UTF-8" standalone="no"?>
<!DOCTYPE svg PUBLIC "-//W3C//DTD SVG 1.1//EN" "http://www.w3.org/Graphics/SVG/1.1/DTD/svg11.dtd">
<svg width="100%" height="100%" viewBox="0 0 24 24" version="1.1" xmlns="http://www.w3.org/2000/svg" xmlns:xlink="http://www.w3.org/1999/xlink" xml:space="preserve" xmlns:serif="http://www.serif.com/" style="fill-rule:evenodd;clip-rule:evenodd;stroke-linejoin:round;stroke-miterlimit:2;">
    <path d="M11.5,21C8.53,21 5.92,19.5 4.4,17.18L7.88,15.17C8.7,16.28 10,17 11.5,17C12.14,17 12.75,16.87 13.3,16.62L15.31,20.1C14.16,20.68 12.87,21 11.5,21ZM11.5,20C9.262,20 7.255,19.036 5.882,17.479L7.67,16.446C8.656,17.408 9.996,18 11.5,18C11.964,18 12.416,17.944 12.847,17.834L13.876,19.617C13.129,19.867 12.331,20 11.5,20Z"/>
    <path d="M16.18,19.6L14.17,16.12C15.15,15.4 15.83,14.28 15.97,13L20,13C19.83,15.76 18.35,18.16 16.18,19.6ZM16.476,18.113L15.446,16.33C16.07,15.687 16.54,14.889 16.791,14L18.861,14C18.525,15.623 17.669,17.053 16.476,18.113Z"/>
    <path d="M7,12.5C7,13.14 7.13,13.75 7.38,14.3L3.9,16.31C3.32,15.16 3,13.87 3,12.5C3,7.97 6.54,4.27 11,4L11,8.03C8.75,8.28 7,10.18 7,12.5ZM6,12.5C6,12.964 6.056,13.416 6.166,13.847L4.383,14.876C4.133,14.129 4,13.331 4,12.5C4,8.869 6.578,5.841 10,5.138L10,7.21C7.692,7.862 6,9.978 6,12.5Z"/>
    <path d="M13,7.03L13,3C17.3,3.26 20.74,6.7 21,11L16.97,11C16.74,8.91 15.09,7.26 13,7.03Z"/>
</svg>
